<svg width="20" height="21" viewBox="0 0 20 21" fill="none" xmlns="http://www.w3.org/2000/svg">
<g id="Line Rounded/Email">
<g id="Email">
<path id="Vector" d="M18.3333 6.09863V14.432C18.3333 14.9845 18.1138 15.5144 17.7231 15.9051C17.3324 16.2958 16.8025 16.5153 16.25 16.5153H3.75C3.19746 16.5153 2.66756 16.2958 2.27686 15.9051C1.88616 15.5144 1.66666 14.9845 1.66666 14.432V6.09863" stroke="white" stroke-width="1.4" stroke-linecap="round" stroke-linejoin="round"/>
<path id="Vector_2" d="M18.3333 6.09871C18.3333 5.54618 18.1138 5.01628 17.7231 4.62558C17.3324 4.23487 16.8025 4.01538 16.25 4.01538H3.75C3.19746 4.01538 2.66756 4.23487 2.27686 4.62558C1.88616 5.01628 1.66666 5.54618 1.66666 6.09871L8.89583 10.6126C9.22694 10.8195 9.60954 10.9293 10 10.9293C10.3905 10.9293 10.7731 10.8195 11.1042 10.6126L18.3333 6.09871Z" stroke="#8D8BA7" stroke-width="1.4" stroke-linecap="round" stroke-linejoin="round"/>
</g>
</g>
</svg>
