<?xml version="1.0" encoding="UTF-8"?>
<svg id="Layer_2" data-name="Layer 2" xmlns="http://www.w3.org/2000/svg" viewBox="0 0 774.88 589.39">
  <defs>
    <style>
      .cls-1 {
        fill: #fff;
        stroke: #000;
        stroke-miterlimit: 10;
      }
    </style>
  </defs>
  <path class="cls-1" d="M297.22,54.74c.86-3.73,1.28-6.14,1.28-6.14-.48,1.87-.9,3.93-1.28,6.14Z"/>
  <path class="cls-1" d="M132.24,151.73c9.29,1.29,16.26,33.88,16.26,33.88,8-64-21-134-21-134-7,98-41,32.5-41,32.5,18,52.5,0,154,0,154-9-2.5-9-16.5-9-16.5-2,22,9,27.5,9,27.5v29.5c-7,4-15.5-13-15.5-13,9.5-20-1.5-49-1.5-49-.16,2.36-.59,4.85-1.2,7.36-3.28,13.44-11.8,27.64-11.8,27.64-15-76,26-87,26-87-38-6-40-53-40-53-8,99-34,28.5-34,28.5-18,50.5,0,125.5,0,125.5,0,0,25-143,33,19,0,0-6,14-9-12,0,0-10,41,5,80,0,0,8-103,24-4,0,0,5,29-17,44,0,0,50,43,47,125,0,0-6,18-9,16l1,7s27,14,36,44c0,0,5-3-9-43,0,0-11-30-2-60s27-49,27-49c0,0,9-18,13,0s-6,52,29,123c0,0-21-121,2-148,0,0,14-35,24-37l-9-20,28,15s14,22,5,79c0,0-16,38-19,46l-1,4s26-36,34-33c0,0,14,81-13,96,0,0,27,2,38-97,0,0,28.49-47.52,45,2,1,3,39,67,13,106,0,0,31-23,19-102l12-26s-38-31-42-168c0,0,5,6,11,7,0,0,14,72,37,112,0,0-17-60-5-76,0,0-6-11-6-20,0,0,23.51,12,27.26,22.5,0,0,13.74,81.5-16.26,124.5,0,0,34,40,16,132,0,0,55-50,25-232,0,0,26,15,27,84,0,0,23-49-24-117,0,0-22-31-10-65,0,0,1,42,16,59,0,0,41,27,38,78,0,0,7,40-19,70,0,0,34,92,36,129,0,0,15-102,34-115,0,0-19-12-22-49s-12-126-12-126c0,0,21,21,27,24s22,113,22,146c0,0-2,23-5,23s34.17,46,33.58,101c0,0,20.42-92,32.42-111,0,0-36-31-38-77,0,0,2-79,21-45,0,0,3,38-15,55,0,0,21-11,28-32,0,0,10,30-9,57,0,0,56,26,51,113,0,0,14-59,6-128,0,0-36-144-30-168,0,0,25.94,67.07,32.47,71.53,0,0-11.47,43.47,16.53,111.47,0,0-10-50-4-74,0,0,28,88,25,101,0,0-18,60-14,77,0,0,11.45-56.44,14.22-41.22,0,0,.78,42.22,16.78,64.22,0,0-2-95,20-112,0,0,78-50,17,73,0,0,89-61,50-152,0,0-20-40,1-79,0,0-32,36-20,62,0,0,23,39-23,54,0,0-22-6-32,18,0,0,10.35-62,43.67-87.5l-27.67-32.5s10-56-11-70c0,0-42-12-21-90,0,0,18,20,48,17,0,0-36-8-39-47,0,0-9-49-65-89,0,0,93,121-28,75l42,91s-14,22-44-54c0,0-10,58,45,85,0,0,6,0,10,15s35,89,35,89l-8,25s-38-58-37-81-15-43-15-43c0,0,9,22,2,36l-50-97s-10-33,2-46c0,0-6-42-26-48,0,0,15,33-23,51,0,0-47,15-33,78,0,0-24-9,3-78,0,0,6-31-15-51,0,0,16,40-14,58,0,0-33,7-35-92,0,0-14,30-7,55,0,0,9,40-10,53,0,0-18.12.37-25.06,27.69,0,0-12.94-27.69-6.94-51.69s24,20,24,20c0,0,12-121-56-121,0,0,54,65-27,107,0,0,33,20,37,58l14,86-27-17s-14-25-5-47c0,0,5-28-29-54,0,0,23,40,16,50,0,0-9,23-5,39,0,0-11,3-19-13,0,0-14.63-125.33-6.28-173.86-3.33,14.45-13.23,48.81-30.72,40.86-22-10-2-94-2-94,0,0-32,32-29,81s-15,59-15,59c0,0-12-25,13-42,0,0,0-48-28-75,0,0,10,61-20,49,0,0-29-21-44,10,0,0,29,14,21,99v35l-16-21c-2-29-14-43-14-43,6,14-1,38-1,38-7,17-7,37-7,37-4,10-16,7-16,7,7.88-66.94,16.52-84.88,23.74-83.88M83.5,356.6c-4-11-19-69-19-69,16,10,21,10,21,10,0,0,2,70-2,59ZM138.5,202.6l7,13s-7,3-12,9c0,0,2-20,5-22ZM140.5,410.6c-12,4-35.89,41.1-35.89,41.1-8.89-15.9,1.89-46.1,1.89-46.1,33-57,11.2-82.91,11.2-82.91,0,0,2.8,46.91-7.2,37.91s-4.24-60.5-4.24-60.5c16.76-13.5,13.24-21.5,13.24-21.5-11,5-15-4-15-4-5-35,22-25,22-25,1,31,26,79,26,79,4,5,3,54,3,54,2,6-15,28-15,28ZM157.5,294.6s-19-39-22-50,16-19,16-19l11,21-5,48ZM188.5,121.6c7.33,46,14.67,92,22,138l-27-27c1.67-37,3.33-74,5-111ZM186.79,322.69l-.29-56.09,28,36,5,40s-28.43-10.83-32.71-19.91ZM281.5,263.6s9.94,9.95,5.04,53.64c-.01.23-.04.36-.04.36.01-.12.02-.24.04-.36.09-1.78-.71-10.03-21.04-20.64,0,0,18-19,16-33ZM246.19,279.6c-8.31-13-17.16-79.82-17.16-79.82-2.47-24.82,5.47-48.18,5.47-48.18,25-73,40,64,40,64-19-10-20-49-20-49-11,20,0,68,4,78s-4,48-12.31,35ZM287.9,423.21c-18.6-14.39-26.4-46.61-26.4-46.61-12-36-2-56-2-56,37,15,8,63,8,63,23,8,22-31,22-31,13,61-1.6,70.61-1.6,70.61ZM387.44,218.6c-6.06-17,19.06-64,30.06-53s10,64,10,64l-14-2c8-15-25-58-14.84-37,10.16,21-5.16,45-11.21,28ZM433.19,301.76s-27.69-14.16-25.69-46.16,14.92,0,14.92,0l12.08,22s6.38,30.32-1.31,24.16ZM464.44,260.1l-5.72-63.32,23.78,77.82-18.06-14.5ZM520.32,163.95s22.1,11.82,24.64,71.74c0,0-21.66-8.09-43.56-11.09,0,0-10.26-63.3,18.92-60.65ZM541.5,331.6c-25-21-36-77-36-77,8-14,44.74,12,44.74,12,11.74,22-8.74,49-8.74,49,15,3,25.46-21,25.46-21,5.46,39-25.46,37-25.46,37ZM676.97,241.38c26.47,2.78,19.53,38.22,19.53,38.22-11-12-19.53-38.22-19.53-38.22Z"/>
</svg>