<svg width="20" height="21" viewBox="0 0 20 21" fill="none" xmlns="http://www.w3.org/2000/svg">
<g id="Line Rounded/Mark">
<g id="Mark">
<path id="Vector" d="M16.8608 9.10548C16.8608 14.4843 11.3516 17.7981 10.2068 18.4292C10.1433 18.4642 10.0721 18.4826 9.99964 18.4826C9.92721 18.4826 9.85596 18.4642 9.79254 18.4292C8.64679 17.7981 3.13931 14.4843 3.13931 9.10548C3.13931 4.8175 5.7121 1.81592 10.0001 1.81592C14.288 1.81592 16.8608 4.8175 16.8608 9.10548Z" stroke="white" stroke-width="1.4" stroke-linecap="round" stroke-linejoin="round"/>
<path id="Vector_2" d="M6.56972 8.67672C6.56972 9.58651 6.93113 10.459 7.57445 11.1024C8.21777 11.7457 9.0903 12.1071 10.0001 12.1071C10.9099 12.1071 11.7824 11.7457 12.4257 11.1024C13.0691 10.459 13.4305 9.58651 13.4305 8.67672C13.4305 7.76692 13.0691 6.89439 12.4257 6.25107C11.7824 5.60775 10.9099 5.24634 10.0001 5.24634C9.0903 5.24634 8.21777 5.60775 7.57445 6.25107C6.93113 6.89439 6.56972 7.76692 6.56972 8.67672V8.67672Z" stroke="white" stroke-width="1.4" stroke-linecap="round" stroke-linejoin="round"/>
</g>
</g>
</svg>
