<svg width="20" height="21" viewBox="0 0 20 21" fill="none" xmlns="http://www.w3.org/2000/svg">
<g id="Line Rounded/Phone" clip-path="url(#clip0_3_708)">
<g id="Phone">
<path id="Vector" d="M12.2516 17.5343L12.2607 17.5407C13.0477 18.0418 13.9822 18.2594 14.9097 18.1575C15.8371 18.0557 16.7021 17.6405 17.3616 16.9805L17.9346 16.4075C18.0615 16.2806 18.1622 16.13 18.231 15.9641C18.2997 15.7983 18.3351 15.6206 18.3351 15.4411C18.3351 15.2616 18.2997 15.0838 18.231 14.918C18.1622 14.7522 18.0615 14.6015 17.9346 14.4746L15.518 12.0599C15.3911 11.9329 15.2404 11.8322 15.0746 11.7635C14.9088 11.6948 14.731 11.6594 14.5515 11.6594C14.372 11.6594 14.1943 11.6948 14.0285 11.7635C13.8627 11.8322 13.712 11.9329 13.5851 12.0599C13.3289 12.316 12.9814 12.4599 12.6191 12.4599C12.2568 12.4599 11.9093 12.316 11.6531 12.0599L7.78917 8.19503C7.53303 7.9388 7.38913 7.59134 7.38913 7.22904C7.38913 6.86674 7.53303 6.51927 7.78917 6.26305C7.91614 6.13617 8.01686 5.9855 8.08558 5.81968C8.1543 5.65385 8.18967 5.47611 8.18967 5.29661C8.18967 5.11711 8.1543 4.93936 8.08558 4.77354C8.01686 4.60771 7.91614 4.45705 7.78917 4.33016L5.37352 1.91542C5.1173 1.65928 4.76983 1.51538 4.40753 1.51538C4.04523 1.51538 3.69777 1.65928 3.44154 1.91542L2.86769 2.48836C2.20784 3.148 1.79278 4.01302 1.69109 4.94048C1.5894 5.86795 1.80717 6.80235 2.30841 7.58929L2.31387 7.5984C4.96106 11.515 8.3345 14.8878 12.2516 17.5343V17.5343Z" stroke="white" stroke-width="1.4" stroke-linecap="round" stroke-linejoin="round"/>
</g>
</g>
<defs>
<clipPath id="clip0_3_708">
<rect width="20" height="20" fill="white" transform="translate(0 0.14917)"/>
</clipPath>
</defs>
</svg>
